<?xml version="1.0" encoding="UTF-8" standalone="no"?>
<!DOCTYPE svg PUBLIC "-//W3C//DTD SVG 1.1//EN"
 "http://www.w3.org/Graphics/SVG/1.1/DTD/svg11.dtd">
<!-- Generated by graphviz version 2.38.0 (20140413.2041)
 -->
<!-- Title: %3 Pages: 1 -->
<svg width="434pt" height="475pt"
 viewBox="0.00 0.00 433.95 475.46" xmlns="http://www.w3.org/2000/svg" xmlns:xlink="http://www.w3.org/1999/xlink">
<g id="graph0" class="graph" transform="scale(1 1) rotate(0) translate(4 471.456)">
<title>%3</title>
<polygon fill="white" stroke="none" points="-4,4 -4,-471.456 429.949,-471.456 429.949,4 -4,4"/>
<g id="clust1" class="cluster"><title>cluster_sql</title>
<polygon fill="none" stroke="black" points="8,-232 8,-459.456 126,-459.456 126,-232 8,-232"/>
<text text-anchor="middle" x="67" y="-444.256" font-family="Times,serif" font-size="14.00">sql</text>
</g>
<g id="clust2" class="cluster"><title>cluster_viz</title>
<polygon fill="none" stroke="black" points="142,-232 142,-385.456 248,-385.456 248,-232 142,-232"/>
<text text-anchor="middle" x="195" y="-370.256" font-family="Times,serif" font-size="14.00">vega</text>
</g>
<g id="clust3" class="cluster"><title>cluster_jupyter</title>
<polygon fill="none" stroke="black" points="105,-64 105,-224 225,-224 225,-64 105,-64"/>
<text text-anchor="middle" x="165" y="-208.8" font-family="Times,serif" font-size="14.00">Jupyter</text>
<text text-anchor="middle" x="165" y="-194.8" font-family="Times,serif" font-size="14.00">Renderer</text>
</g>
<!-- Ibis -->
<g id="node1" class="node"><title>Ibis</title>
<ellipse fill="none" stroke="black" cx="84" cy="-411.456" rx="27" ry="18"/>
<text text-anchor="middle" x="84" y="-407.256" font-family="Times,serif" font-size="14.00">Ibis</text>
</g>
<!-- Compile -->
<g id="node2" class="node"><title>Compile</title>
<ellipse fill="none" stroke="black" cx="77" cy="-337.456" rx="40.6335" ry="18"/>
<text text-anchor="middle" x="77" y="-333.256" font-family="Times,serif" font-size="14.00">Compile</text>
</g>
<!-- Ibis&#45;&gt;Compile -->
<g id="edge1" class="edge"><title>Ibis&#45;&gt;Compile</title>
<path fill="none" stroke="black" d="M82.3411,-393.393C81.5421,-385.175 80.5642,-375.116 79.6645,-365.862"/>
<polygon fill="black" stroke="black" points="83.1469,-365.511 78.6956,-355.897 76.1798,-366.188 83.1469,-365.511"/>
</g>
<!-- Altair -->
<g id="node4" class="node"><title>Altair</title>
<ellipse fill="none" stroke="black" cx="202" cy="-337.456" rx="30.9706" ry="18"/>
<text text-anchor="middle" x="202" y="-333.256" font-family="Times,serif" font-size="14.00">Altair</text>
</g>
<!-- Ibis&#45;&gt;Altair -->
<g id="edge11" class="edge"><title>Ibis&#45;&gt;Altair</title>
<path fill="none" stroke="black" d="M125.737,-387.966C127.18,-387.127 128.605,-386.288 130,-385.456 144.789,-376.63 160.872,-366.213 174.079,-357.431"/>
<polygon fill="black" stroke="black" points="176.348,-360.124 182.711,-351.653 172.454,-354.307 176.348,-360.124"/>
</g>
<!-- PyMapD API
TODO -->
<g id="node10" class="node"><title>PyMapD API
TODO</title>
<ellipse fill="none" stroke="black" cx="361" cy="-258" rx="64.8978" ry="25.4118"/>
<text text-anchor="middle" x="361" y="-260.8" font-family="Times,serif" font-size="14.00">PyMapD API</text>
<text text-anchor="middle" x="361" y="-246.8" font-family="Times,serif" font-size="14.00">TODO</text>
</g>
<!-- Ibis&#45;&gt;PyMapD API
TODO -->
<g id="edge12" class="edge"><title>Ibis&#45;&gt;PyMapD API
TODO</title>
<path fill="none" stroke="black" d="M110.753,-408.742C151.845,-405.735 228.239,-398.547 252,-385.456 291.571,-363.655 323.365,-321.52 342.181,-291.896"/>
<polygon fill="black" stroke="black" points="345.313,-293.485 347.598,-283.14 339.36,-289.802 345.313,-293.485"/>
</g>
<!-- Execute -->
<g id="node3" class="node"><title>Execute</title>
<ellipse fill="none" stroke="black" cx="55" cy="-258" rx="38.6695" ry="18"/>
<text text-anchor="middle" x="55" y="-253.8" font-family="Times,serif" font-size="14.00">Execute</text>
</g>
<!-- Compile&#45;&gt;Execute -->
<g id="edge2" class="edge"><title>Compile&#45;&gt;Execute</title>
<path fill="none" stroke="black" d="M72.1175,-319.266C69.3068,-309.37 65.7148,-296.724 62.5477,-285.573"/>
<polygon fill="black" stroke="black" points="65.8923,-284.539 59.7932,-275.875 59.1587,-286.451 65.8923,-284.539"/>
</g>
<!-- MapD Vega -->
<g id="node8" class="node"><title>MapD Vega</title>
<ellipse fill="none" stroke="black" cx="165" cy="-90" rx="52.3744" ry="18"/>
<text text-anchor="middle" x="165" y="-85.8" font-family="Times,serif" font-size="14.00">MapD Vega</text>
</g>
<!-- Compile&#45;&gt;MapD Vega -->
<g id="edge8" class="edge"><title>Compile&#45;&gt;MapD Vega</title>
<path fill="none" stroke="black" d="M86.069,-319.555C91.3835,-309.284 98.0102,-295.81 103,-283.456 115.379,-252.806 143.099,-163.095 156.889,-117.808"/>
<polygon fill="black" stroke="black" points="160.285,-118.669 159.844,-108.083 153.588,-116.634 160.285,-118.669"/>
</g>
<!-- Execute&#45;&gt;Ibis -->
<g id="edge3" class="edge"><title>Execute&#45;&gt;Ibis</title>
<path fill="none" stroke="black" d="M43.9777,-275.58C28.472,-301.19 4.49291,-351.008 27,-385.456 32.0672,-393.212 40.1334,-398.576 48.6216,-402.282"/>
<polygon fill="black" stroke="black" points="47.653,-405.654 58.2469,-405.8 50.0559,-399.08 47.653,-405.654"/>
</g>
<!-- Vega&#45;Lite -->
<g id="node5" class="node"><title>Vega&#45;Lite</title>
<ellipse fill="none" stroke="black" cx="195" cy="-258" rx="44.9423" ry="18"/>
<text text-anchor="middle" x="195" y="-253.8" font-family="Times,serif" font-size="14.00">Vega&#45;Lite</text>
</g>
<!-- Altair&#45;&gt;Vega&#45;Lite -->
<g id="edge4" class="edge"><title>Altair&#45;&gt;Vega&#45;Lite</title>
<path fill="none" stroke="black" d="M200.446,-319.266C199.567,-309.539 198.448,-297.154 197.453,-286.144"/>
<polygon fill="black" stroke="black" points="200.935,-285.786 196.549,-276.142 193.964,-286.416 200.935,-285.786"/>
</g>
<!-- Altair&#45;&gt;PyMapD API
TODO -->
<g id="edge13" class="edge"><title>Altair&#45;&gt;PyMapD API
TODO</title>
<path fill="none" stroke="black" d="M224.781,-325.358C247.483,-314.299 283.062,-296.967 312.166,-282.789"/>
<polygon fill="black" stroke="black" points="313.906,-285.835 321.363,-278.309 310.84,-279.542 313.906,-285.835"/>
</g>
<!-- SVG -->
<g id="node6" class="node"><title>SVG</title>
<ellipse fill="none" stroke="black" cx="264" cy="-162" rx="27.5976" ry="18"/>
<text text-anchor="middle" x="264" y="-157.8" font-family="Times,serif" font-size="14.00">SVG</text>
</g>
<!-- Vega&#45;Lite&#45;&gt;SVG -->
<g id="edge5" class="edge"><title>Vega&#45;Lite&#45;&gt;SVG</title>
<path fill="none" stroke="black" d="M212.914,-241.415C218.411,-236.177 224.255,-230.106 229,-224 237.545,-213.003 245.424,-199.696 251.534,-188.32"/>
<polygon fill="black" stroke="black" points="254.71,-189.798 256.226,-179.312 248.502,-186.565 254.71,-189.798"/>
</g>
<!-- Vega -->
<g id="node7" class="node"><title>Vega</title>
<ellipse fill="none" stroke="black" cx="186" cy="-162" rx="27.5719" ry="18"/>
<text text-anchor="middle" x="186" y="-157.8" font-family="Times,serif" font-size="14.00">Vega</text>
</g>
<!-- Vega&#45;Lite&#45;&gt;Vega -->
<g id="edge7" class="edge"><title>Vega&#45;Lite&#45;&gt;Vega</title>
<path fill="none" stroke="black" d="M193.349,-239.759C192.03,-225.978 190.155,-206.4 188.63,-190.465"/>
<polygon fill="black" stroke="black" points="192.078,-189.753 187.64,-180.132 185.109,-190.42 192.078,-189.753"/>
</g>
<!-- SVG&#45;&gt;Altair -->
<g id="edge6" class="edge"><title>SVG&#45;&gt;Altair</title>
<path fill="none" stroke="black" d="M264.976,-180.214C265.67,-204.392 264.456,-249.276 249,-283.456 243.748,-295.07 235.046,-305.967 226.547,-314.823"/>
<polygon fill="black" stroke="black" points="223.884,-312.534 219.223,-322.049 228.8,-317.518 223.884,-312.534"/>
</g>
<!-- Vega&#45;&gt;MapD Vega -->
<g id="edge9" class="edge"><title>Vega&#45;&gt;MapD Vega</title>
<path fill="none" stroke="black" d="M180.916,-144.055C178.578,-136.261 175.747,-126.822 173.124,-118.079"/>
<polygon fill="black" stroke="black" points="176.409,-116.848 170.183,-108.275 169.704,-118.859 176.409,-116.848"/>
</g>
<!-- PNG -->
<g id="node9" class="node"><title>PNG</title>
<ellipse fill="none" stroke="black" cx="165" cy="-18" rx="27.5976" ry="18"/>
<text text-anchor="middle" x="165" y="-13.8" font-family="Times,serif" font-size="14.00">PNG</text>
</g>
<!-- MapD Vega&#45;&gt;PNG -->
<g id="edge10" class="edge"><title>MapD Vega&#45;&gt;PNG</title>
<path fill="none" stroke="black" d="M165,-71.6966C165,-63.9827 165,-54.7125 165,-46.1124"/>
<polygon fill="black" stroke="black" points="168.5,-46.1043 165,-36.1043 161.5,-46.1044 168.5,-46.1043"/>
</g>
</g>
</svg>
